<svg width="287" height="86" viewBox="0 0 287 86" fill="none" xmlns="http://www.w3.org/2000/svg">
<path d="M74.4845 25.304C75.8765 25.304 77.3005 25.088 78.7565 24.656V27.344C77.5245 27.936 75.9805 28.232 74.1245 28.232C72.1245 28.232 70.4125 27.856 68.9885 27.104C67.5645 26.368 66.4765 25.304 65.7245 23.912C64.9885 22.536 64.6205 20.904 64.6205 19.016C64.6205 16.632 65.1885 14.504 66.3245 12.632C67.4605 10.76 68.9725 9.312 70.8605 8.288C72.7645 7.264 74.8685 6.752 77.1725 6.752C79.1885 6.752 80.9165 7.112 82.3565 7.832C83.8125 8.536 84.9085 9.544 85.6445 10.856C86.3965 12.168 86.7725 13.72 86.7725 15.512C86.7725 17.032 86.5005 18.384 85.9565 19.568C85.4125 20.752 84.6765 21.664 83.7485 22.304C82.8205 22.944 81.7885 23.264 80.6525 23.264C79.8685 23.264 79.1885 23.136 78.6125 22.88C78.0365 22.624 77.5885 22.264 77.2685 21.8C76.9005 22.232 76.4205 22.592 75.8285 22.88C75.2365 23.168 74.6685 23.312 74.1245 23.312C72.8445 23.312 71.8765 22.944 71.2205 22.208C70.5805 21.456 70.2605 20.352 70.2605 18.896C70.2605 17.584 70.5245 16.368 71.0525 15.248C71.5805 14.128 72.2445 13.256 73.0445 12.632C73.8605 11.992 74.7005 11.672 75.5645 11.672C76.6685 11.672 77.5565 12.096 78.2285 12.944L78.6125 12.032H81.6365L80.3645 19.328C80.3165 19.536 80.2925 19.752 80.2925 19.976C80.2925 20.184 80.3645 20.352 80.5085 20.48C80.6525 20.608 80.8445 20.672 81.0845 20.672C81.7565 20.672 82.3165 20.192 82.7645 19.232C83.2285 18.256 83.4605 17.048 83.4605 15.608C83.4605 11.656 81.3165 9.68 77.0285 9.68C75.3005 9.68 73.7565 10.096 72.3965 10.928C71.0525 11.744 70.0205 12.856 69.3005 14.264C68.5805 15.672 68.2205 17.24 68.2205 18.968C68.2205 20.984 68.7565 22.544 69.8285 23.648C70.9165 24.752 72.4685 25.304 74.4845 25.304ZM75.4685 20.576C75.6925 20.576 75.9245 20.512 76.1645 20.384C76.4205 20.24 76.6285 20.056 76.7885 19.832C76.7885 19.576 76.8205 19.264 76.8845 18.896L77.6045 14.72C77.1405 14.512 76.7245 14.408 76.3565 14.408C75.7485 14.408 75.2125 14.824 74.7485 15.656C74.2845 16.472 74.0525 17.424 74.0525 18.512C74.0525 19.888 74.5245 20.576 75.4685 20.576ZM96.4211 21.632C95.5571 22.336 94.5811 22.688 93.4931 22.688C92.5011 22.688 91.6291 22.432 90.8771 21.92C90.1411 21.392 89.5731 20.664 89.1731 19.736C88.7891 18.808 88.5971 17.736 88.5971 16.52C88.5971 15.256 88.8131 14.152 89.2451 13.208C89.6771 12.248 90.2691 11.52 91.0211 11.024C91.7731 10.528 92.6211 10.28 93.5651 10.28C94.2371 10.28 94.8531 10.392 95.4131 10.616C95.9891 10.84 96.4771 11.168 96.8771 11.6L97.1651 10.64H100.837V21.896C100.837 23.88 100.261 25.432 99.1091 26.552C97.9731 27.672 96.3971 28.232 94.3811 28.232C93.4851 28.232 92.6691 28.152 91.9331 27.992C91.2131 27.832 90.4531 27.56 89.6531 27.176V24.344C91.1731 24.824 92.5251 25.064 93.7091 25.064C94.6691 25.064 95.3571 24.872 95.7731 24.488C96.2051 24.104 96.4211 23.472 96.4211 22.592V21.632ZM94.9811 19.568C95.4291 19.568 95.9091 19.448 96.4211 19.208V13.736C95.8931 13.512 95.3491 13.4 94.7891 13.4C94.1971 13.4 93.7571 13.648 93.4691 14.144C93.1971 14.64 93.0611 15.392 93.0611 16.4C93.0611 17.536 93.2051 18.352 93.4931 18.848C93.7971 19.328 94.2931 19.568 94.9811 19.568ZM107.012 23L102.38 10.64H107.156L109.124 18.8L111.164 10.64H115.82L111.236 23H107.012ZM117.346 23V5.24H121.858V11.384C122.306 11.032 122.802 10.76 123.346 10.568C123.906 10.376 124.466 10.28 125.026 10.28C126.562 10.28 127.778 10.848 128.674 11.984C129.57 13.12 130.018 14.672 130.018 16.64C130.018 18 129.794 19.184 129.346 20.192C128.898 21.184 128.274 21.944 127.474 22.472C126.69 23 125.802 23.264 124.81 23.264C124.138 23.264 123.49 23.144 122.866 22.904C122.258 22.664 121.786 22.36 121.45 21.992L121.138 23H117.346ZM123.466 13.4C122.906 13.4 122.37 13.52 121.858 13.76V19.736C122.37 19.976 122.906 20.096 123.466 20.096C124.186 20.096 124.698 19.84 125.002 19.328C125.306 18.816 125.458 17.976 125.458 16.808C125.458 15.608 125.306 14.744 125.002 14.216C124.698 13.672 124.186 13.4 123.466 13.4ZM137.383 19.52C137.383 19.296 137.311 19.128 137.167 19.016C137.023 18.888 136.727 18.736 136.279 18.56L134.503 17.864C133.495 17.464 132.767 16.976 132.319 16.4C131.871 15.808 131.647 15.04 131.647 14.096C131.647 13.312 131.863 12.632 132.295 12.056C132.743 11.48 133.351 11.04 134.119 10.736C134.903 10.432 135.807 10.28 136.831 10.28C138.303 10.28 139.647 10.592 140.863 11.216V13.952C139.551 13.552 138.335 13.352 137.215 13.352C136.671 13.352 136.287 13.4 136.063 13.496C135.839 13.592 135.727 13.768 135.727 14.024C135.727 14.216 135.807 14.376 135.967 14.504C136.143 14.632 136.431 14.776 136.831 14.936L138.607 15.632C139.711 16.064 140.471 16.544 140.887 17.072C141.303 17.6 141.511 18.328 141.511 19.256C141.511 20.52 141.039 21.528 140.095 22.28C139.167 23.016 137.903 23.384 136.303 23.384C134.447 23.384 132.911 23.032 131.695 22.328V19.544C132.671 19.816 133.479 20.008 134.119 20.12C134.775 20.216 135.431 20.264 136.087 20.264C136.535 20.264 136.863 20.208 137.071 20.096C137.279 19.968 137.383 19.776 137.383 19.52ZM150.15 23L148.326 19.616L146.67 23H142.062L146.046 16.736L141.99 10.64H146.766L148.542 13.808L150.102 10.64H154.71L150.75 16.496L154.926 23H150.15ZM171.487 23V14.696C171.487 13.896 171.119 13.496 170.383 13.496C169.775 13.496 169.143 13.672 168.487 14.024V23H163.975V14.696C163.975 13.896 163.607 13.496 162.871 13.496C162.263 13.496 161.631 13.672 160.975 14.024V23H156.463V10.64H160.135L160.519 11.84C161.287 11.28 162.015 10.88 162.703 10.64C163.391 10.4 164.127 10.28 164.911 10.28C165.615 10.28 166.223 10.408 166.735 10.664C167.247 10.92 167.655 11.288 167.959 11.768C168.759 11.24 169.503 10.864 170.191 10.64C170.879 10.4 171.623 10.28 172.423 10.28C173.543 10.28 174.415 10.592 175.039 11.216C175.679 11.824 175.999 12.68 175.999 13.784V23H171.487ZM184.818 23.36C182.818 23.36 181.25 22.784 180.114 21.632C178.978 20.48 178.41 18.872 178.41 16.808C178.41 14.76 178.978 13.16 180.114 12.008C181.25 10.856 182.818 10.28 184.818 10.28C186.818 10.28 188.386 10.856 189.522 12.008C190.658 13.16 191.226 14.76 191.226 16.808C191.226 18.872 190.658 20.48 189.522 21.632C188.386 22.784 186.818 23.36 184.818 23.36ZM184.818 20.192C186.05 20.192 186.666 19.064 186.666 16.808C186.666 14.568 186.05 13.448 184.818 13.448C183.586 13.448 182.97 14.568 182.97 16.808C182.97 19.064 183.586 20.192 184.818 20.192ZM199.466 23.36C197.466 23.36 195.898 22.784 194.762 21.632C193.626 20.48 193.058 18.872 193.058 16.808C193.058 14.76 193.626 13.16 194.762 12.008C195.898 10.856 197.466 10.28 199.466 10.28C201.466 10.28 203.034 10.856 204.17 12.008C205.306 13.16 205.874 14.76 205.874 16.808C205.874 18.872 205.306 20.48 204.17 21.632C203.034 22.784 201.466 23.36 199.466 23.36ZM199.466 20.192C200.698 20.192 201.314 19.064 201.314 16.808C201.314 14.568 200.698 13.448 199.466 13.448C198.234 13.448 197.618 14.568 197.618 16.808C197.618 19.064 198.234 20.192 199.466 20.192ZM215.914 23V14.888C215.914 14.408 215.818 14.056 215.626 13.832C215.45 13.608 215.146 13.496 214.714 13.496C214.122 13.496 213.498 13.696 212.842 14.096V23H208.33V10.64H212.002L212.386 11.888C213.138 11.328 213.874 10.92 214.594 10.664C215.314 10.408 216.074 10.28 216.874 10.28C218.026 10.28 218.906 10.592 219.514 11.216C220.122 11.84 220.426 12.728 220.426 13.88V23H215.914Z" fill="white" fill-opacity="0.3"/>
<path d="M35.9332 69.0037C35.9332 66.6233 32.9522 64.3674 28.3818 62.9684C29.4365 58.3101 28.9677 54.604 26.9023 53.4175C26.4262 53.1392 25.8695 53.0073 25.2616 53.0073V54.6406C25.5985 54.6406 25.8695 54.7066 26.0966 54.8311C27.0927 55.4024 27.5248 57.5777 27.1879 60.3756C27.1074 61.0641 26.9755 61.7892 26.8144 62.529C25.3788 62.1774 23.8114 61.9064 22.1634 61.7306C21.1746 60.3756 20.1492 59.1451 19.1165 58.0684C21.5042 55.8492 23.7455 54.6333 25.2689 54.6333V53C23.2548 53 20.618 54.4356 17.9519 56.9258C15.2859 54.4502 12.6491 53.0293 10.6349 53.0293V54.6626C12.1511 54.6626 14.3996 55.8711 16.7874 58.0758C15.762 59.1524 14.7366 60.3756 13.7624 61.7306C12.1071 61.9064 10.5397 62.1774 9.10414 62.5363C8.93568 61.8038 8.81117 61.0934 8.72328 60.4122C8.37903 57.6143 8.80385 55.439 9.79263 54.8604C10.0124 54.7285 10.298 54.6699 10.6349 54.6699V53.0366C10.0197 53.0366 9.46304 53.1685 8.97963 53.4468C6.92149 54.6333 6.46006 58.3321 7.52209 62.9757C2.96635 64.382 0 66.6306 0 69.0037C0 71.3841 2.981 73.64 7.55138 75.0389C6.49668 79.6972 6.96544 83.4033 9.0309 84.5898C9.50698 84.8682 10.0636 85 10.6789 85C12.6931 85 15.3298 83.5644 17.9959 81.0742C20.6619 83.5498 23.2987 84.9707 25.3129 84.9707C25.9281 84.9707 26.4848 84.8389 26.9682 84.5605C29.0263 83.374 29.4878 79.6752 28.4257 75.0316C32.9668 73.6326 35.9332 71.3767 35.9332 69.0037ZM26.3969 64.1183C26.1259 65.0632 25.789 66.0373 25.4081 67.0114C25.1078 66.4255 24.7929 65.8396 24.4486 65.2536C24.1117 64.6677 23.7528 64.0964 23.3939 63.5397C24.434 63.6935 25.4374 63.884 26.3969 64.1183ZM23.0423 71.9187C22.471 72.9075 21.8851 73.845 21.2772 74.7166C20.1859 74.8119 19.0799 74.8631 17.9666 74.8631C16.8606 74.8631 15.7546 74.8119 14.6706 74.724C14.0627 73.8524 13.4694 72.9222 12.8981 71.9407C12.3415 70.9812 11.8361 70.0071 11.3747 69.0256C11.8288 68.0442 12.3415 67.0627 12.8908 66.1032C13.4621 65.1144 14.0481 64.1769 14.656 63.3053C15.7473 63.2101 16.8533 63.1588 17.9666 63.1588C19.0726 63.1588 20.1785 63.2101 21.2625 63.298C21.8705 64.1696 22.4637 65.0998 23.035 66.0813C23.5917 67.0407 24.097 68.0149 24.5585 68.9963C24.097 69.9778 23.5917 70.9593 23.0423 71.9187ZM25.4081 70.9666C25.8036 71.948 26.1405 72.9295 26.4189 73.8817C25.4594 74.116 24.4486 74.3138 23.4012 74.4676C23.7601 73.9036 24.119 73.325 24.4559 72.7317C24.7929 72.1458 25.1078 71.5525 25.4081 70.9666ZM17.9812 78.7816C17.3001 78.0785 16.6189 77.2948 15.9451 76.4379C16.6043 76.4672 17.2781 76.4891 17.9593 76.4891C18.6477 76.4891 19.3289 76.4745 19.9954 76.4379C19.3362 77.2948 18.6551 78.0785 17.9812 78.7816ZM12.5319 74.4676C11.4919 74.3138 10.4884 74.1234 9.52895 73.889C9.79995 72.9442 10.1369 71.97 10.5177 70.9959C10.818 71.5818 11.133 72.1678 11.4772 72.7537C11.8215 73.3397 12.173 73.911 12.5319 74.4676ZM17.9446 59.2257C18.6258 59.9288 19.3069 60.7125 19.9808 61.5695C19.3216 61.5402 18.6477 61.5182 17.9666 61.5182C17.2781 61.5182 16.5969 61.5328 15.9304 61.5695C16.5896 60.7125 17.2708 59.9288 17.9446 59.2257ZM12.5246 63.5397C12.1657 64.1037 11.8068 64.6823 11.4699 65.2756C11.133 65.8615 10.818 66.4475 10.5177 67.0334C10.1222 66.052 9.78531 65.0705 9.50698 64.1183C10.4665 63.8913 11.4772 63.6935 12.5246 63.5397ZM5.89609 72.7098C3.30327 71.6038 1.626 70.1536 1.626 69.0037C1.626 67.8537 3.30327 66.3962 5.89609 65.2975C6.52598 65.0265 7.21447 64.7848 7.92493 64.5578C8.34241 65.9934 8.89174 67.4875 9.5729 69.0183C8.89906 70.5418 8.35706 72.0286 7.9469 73.4569C7.22179 73.2298 6.5333 72.9808 5.89609 72.7098ZM9.83658 83.1762C8.84047 82.6049 8.40833 80.4296 8.74525 77.6317C8.82582 76.9432 8.95766 76.2181 9.11879 75.4784C10.5544 75.8299 12.1218 76.1009 13.7697 76.2767C14.7585 77.6317 15.7839 78.8622 16.8167 79.9389C14.4289 82.1582 12.1877 83.374 10.6642 83.374C10.3346 83.3667 10.0563 83.3008 9.83658 83.1762ZM27.2099 77.5951C27.5541 80.393 27.1293 82.5683 26.1405 83.1469C25.9208 83.2788 25.6352 83.3374 25.2982 83.3374C23.7821 83.3374 21.5335 82.1289 19.1458 79.9242C20.1712 78.8476 21.1966 77.6244 22.1708 76.2694C23.8261 76.0936 25.3935 75.8226 26.829 75.4637C26.9975 76.2035 27.1293 76.9139 27.2099 77.5951ZM30.0298 72.7098C29.3999 72.9808 28.7114 73.2225 28.0009 73.4495C27.5834 72.014 27.0341 70.5198 26.3529 68.989C27.0268 67.4656 27.5688 65.9787 27.9789 64.5505C28.7041 64.7775 29.3925 65.0265 30.0371 65.2975C32.6299 66.4035 34.3072 67.8537 34.3072 69.0037C34.2998 70.1536 32.6226 71.6111 30.0298 72.7098Z" fill="white" fill-opacity="0.3"/>
<path d="M17.959 72.3507C19.8077 72.3507 21.3063 70.8521 21.3063 69.0035C21.3063 67.1549 19.8077 65.6562 17.959 65.6562C16.1104 65.6562 14.6118 67.1549 14.6118 69.0035C14.6118 70.8521 16.1104 72.3507 17.959 72.3507Z" fill="white" fill-opacity="0.3"/>
<path d="M66.1183 78V71.4344H59.9331V66.5656H66.1183V60H71.7479V66.5656H77.9331V71.4344H71.7479V78H66.1183Z" fill="white" fill-opacity="0.3"/>
<g clip-path="url(#clip0_669_25)">
<path d="M126.977 67.9452C126.977 67.9452 126.977 67.954 126.977 67.9592L125.847 72.9358C125.786 73.2173 125.509 73.4237 125.188 73.4237H123.824C123.723 73.4237 123.632 73.4919 123.604 73.5898C122.344 77.9247 120.638 80.9044 118.385 82.6932C116.468 84.2163 114.106 84.9263 110.95 84.9263C108.113 84.9263 106.202 84.0012 104.58 82.1757C102.436 79.7625 101.549 75.8124 102.086 71.0526C103.055 62.1171 107.624 53.1011 116.425 53.1011C119.101 53.0766 121.203 53.9142 122.665 55.5859C124.21 57.3538 124.996 60.017 125 63.502C124.994 63.8185 124.735 64.0738 124.423 64.0738H117.976C117.748 64.0738 117.544 63.8657 117.547 63.6366C117.495 61.227 116.789 60.0519 115.388 60.0519C112.917 60.0519 111.459 63.4548 110.685 65.3415C109.605 67.9767 109.056 70.8376 109.164 73.6878C109.215 75.015 109.425 76.8808 110.668 77.6537C111.769 78.3391 113.341 77.8845 114.292 77.1256C115.244 76.3666 116.009 75.0535 116.331 73.8557C116.376 73.6896 116.38 73.5602 116.336 73.5024C116.291 73.443 116.165 73.429 116.07 73.429H114.414C114.236 73.429 114.06 73.3469 113.954 73.2139C113.865 73.1019 113.83 72.9638 113.862 72.8275L114.994 67.842C115.05 67.5869 115.278 67.3944 115.559 67.3595V67.3472H126.423C126.45 67.3472 126.476 67.3472 126.5 67.3525C126.782 67.3892 126.981 67.655 126.976 67.9452H126.977Z" fill="white" fill-opacity="0.3"/>
<path d="M145.685 62.2258C145.68 62.5371 145.42 62.7923 145.108 62.7923H139.17C138.781 62.7923 138.455 62.4723 138.455 62.0824C138.455 60.325 137.856 59.4699 136.629 59.4699C135.402 59.4699 134.611 60.2341 134.589 61.5683C134.562 63.0564 135.392 64.4081 137.755 66.732C140.865 69.6907 142.111 72.3119 142.052 75.776C141.954 81.3786 138.197 85 132.482 85C129.563 85 127.333 84.2079 125.85 82.6464C124.344 81.0603 123.654 78.7328 123.799 75.7287C123.806 75.4175 124.064 75.1639 124.376 75.1639H130.518C130.685 75.1639 130.851 75.2461 130.962 75.386C131.058 75.5067 131.098 75.6553 131.074 75.7952C131.006 76.8793 131.192 77.6889 131.612 78.1366C131.883 78.4268 132.257 78.5738 132.726 78.5738C133.86 78.5738 134.526 77.7607 134.55 76.3442C134.571 75.1202 134.189 74.0466 132.109 71.8765C129.422 69.2133 127.012 66.4627 127.087 62.1366C127.131 59.6291 128.113 57.3349 129.854 55.6772C131.694 53.925 134.212 53 137.134 53C140.062 53.021 142.28 53.8673 143.728 55.5163C145.099 57.0796 145.76 59.3371 145.687 62.2258H145.685Z" fill="white" fill-opacity="0.3"/>
<path d="M164.093 83.9452L164.131 54.1503C164.136 53.8373 163.887 53.582 163.575 53.582H154.384C154.075 53.582 153.939 53.8513 153.85 54.0297L140.543 83.7635V83.7688C140.543 83.7688 140.539 83.7739 140.538 83.7757C140.39 84.1411 140.67 84.5329 141.061 84.5329H147.485C147.832 84.5329 148.062 84.4262 148.175 84.2042L149.451 81.095C149.607 80.6806 149.637 80.6422 150.083 80.6422H156.222C156.649 80.6422 156.658 80.6509 156.651 81.0741L156.513 83.9645C156.508 84.2776 156.757 84.5329 157.069 84.5329H163.56C163.725 84.5329 163.88 84.4629 163.983 84.3388C164.075 84.2285 164.114 84.0888 164.093 83.9452ZM152.721 73.9974C152.662 73.9974 152.615 73.9956 152.577 73.9921C152.481 73.9834 152.416 73.8907 152.441 73.7963C152.453 73.7525 152.47 73.6949 152.496 73.6231L157.1 62.0734C157.14 61.9597 157.191 61.8478 157.243 61.7394C157.318 61.5838 157.409 61.5733 157.436 61.6887C157.461 61.7849 156.908 73.5479 156.908 73.5479C156.865 73.9885 156.846 74.0061 156.417 74.0428L152.726 73.9991H152.718L152.721 73.9974Z" fill="white" fill-opacity="0.3"/>
<path d="M177.186 53.5826H172.307C172.049 53.5826 171.759 53.7207 171.691 54.032C171.691 54.032 164.901 83.9267 164.901 83.9302C164.871 84.0683 164.903 84.2047 164.993 84.3183C165.1 84.4512 165.276 84.5335 165.453 84.5335H171.552C171.88 84.5335 172.104 84.3708 172.165 84.0875C172.165 84.0875 172.904 80.7091 172.906 80.6987C172.958 80.4347 172.868 80.2301 172.634 80.1058C172.524 80.0482 172.415 79.9904 172.307 79.9328L171.249 79.3749L170.196 78.8189C170.06 78.7471 169.925 78.6755 169.79 78.6038C169.722 78.5688 169.681 78.4989 169.682 78.422C169.684 78.3083 169.778 78.2156 169.891 78.2156L173.234 78.2314C174.234 78.2365 175.234 78.1649 176.217 77.9814C183.138 76.6856 187.735 71.0637 187.867 63.4152C187.98 56.8875 184.387 53.5791 177.191 53.5791L177.186 53.5826ZM175.525 71.3749H175.394C175.102 71.3749 175.049 71.3417 175.04 71.3312C175.035 71.3242 176.968 62.721 176.969 62.7087C177.018 62.4604 177.017 62.317 176.865 62.2331C176.671 62.1247 173.85 60.6156 173.85 60.6156C173.782 60.5789 173.742 60.5089 173.744 60.432C173.746 60.3201 173.838 60.2274 173.951 60.2274H178.412C179.801 60.2711 180.575 61.5301 180.538 63.681C180.474 67.4056 178.728 71.2438 175.525 71.3749Z" fill="white" fill-opacity="0.3"/>
</g>
<path d="M218.118 78V71.4344H211.933V66.5656H218.118V60H223.748V66.5656H229.933V71.4344H223.748V78H218.118Z" fill="white" fill-opacity="0.3"/>
<path fill-rule="evenodd" clip-rule="evenodd" d="M261.838 85L253.933 53L285.62 62.1229L261.838 85Z" stroke="white" stroke-opacity="0.3" stroke-width="2" stroke-miterlimit="10" stroke-linejoin="round"/>
<path fill-rule="evenodd" clip-rule="evenodd" d="M269.771 57.5625L273.72 73.5673L257.885 69.0043L269.771 57.5625Z" stroke="white" stroke-opacity="0.3" stroke-width="2" stroke-miterlimit="10" stroke-linejoin="round"/>
<path fill-rule="evenodd" clip-rule="evenodd" d="M265.842 71.1752L263.88 63.2246L271.747 65.4829L265.842 71.1752Z" stroke="white" stroke-opacity="0.3" stroke-width="2" stroke-miterlimit="10" stroke-linejoin="round"/>
<path fill-rule="evenodd" clip-rule="evenodd" d="M261.918 55.2832L263.879 63.2338L256.012 60.9755L261.918 55.2832Z" stroke="white" stroke-opacity="0.3" stroke-width="2" stroke-miterlimit="10" stroke-linejoin="round"/>
<path fill-rule="evenodd" clip-rule="evenodd" d="M277.651 59.8154L279.613 67.766L271.746 65.5077L277.651 59.8154Z" stroke="white" stroke-opacity="0.3" stroke-width="2" stroke-miterlimit="10" stroke-linejoin="round"/>
<path fill-rule="evenodd" clip-rule="evenodd" d="M265.843 71.1807L267.805 79.1313L259.938 76.8729L265.843 71.1807Z" stroke="white" stroke-opacity="0.3" stroke-width="2" stroke-miterlimit="10" stroke-linejoin="round"/>
<defs>
<clipPath id="clip0_669_25">
<rect width="86" height="32" fill="white" transform="translate(101.933 53)"/>
</clipPath>
</defs>
</svg>
